General
Complete name                    : Elsker dig for evigt.avi
Format                           : AVI
File size                        : 698 MiB
Duration                         : 1h 48mn
Overall bit rate                 : 897 Kbps
Writing application              : VirtualDubMod 1.5.10.2 (build 2542/release)
Writing library                  : VirtualDubMod build 2542/release

Video
Format                           : MPEG-4 Visual
Codec ID/Hint                    : XviD
Duration                         : 1h 48mn
Bit rate                         : 759 Kbps
Width                            : 708 pixels
Height                           : 498 pixels
Display aspect ratio             : 1.422
Stream size                      : 591 MiB (85%)
Writing library                  : XviD 1.2.1 (UTC 2008-12-04)

Audio

Format                           : MPEG Audio
Codec ID/Hint                    : MP3
Duration                         : 1h 48mn
Bit rate                         : 128 Kbps
Channel(s)                       : 2 channels
Sampling rate                    : 44.1 KHz
Stream size                      : 99.6 MiB (14%)
Writing library                  : LAME3.98r


